Coordinates
version=1
nRows=16
nColumns=36
inDegrees=yes

Units are S.I. units (second, meters, Newtons, ...)
If the header above contains a line with 'inDegrees', this indicates whether rotational values are in degrees (yes) or radians (no).

endheader
time	pelvis_tilt	pelvis_list	pelvis_rotation	pelvis_tx	pelvis_ty	pelvis_tz	hip_flexion_r	hip_adduction_r	hip_rotation_r	knee_angle_r	knee_angle_r_beta	ankle_angle_r	subtalar_angle_r	mtp_angle_r	hip_flexion_l	hip_adduction_l	hip_rotation_l	knee_angle_l	knee_angle_l_beta	ankle_angle_l	subtalar_angle_l	mtp_angle_l	lumbar_extension	lumbar_bending	lumbar_rotation	arm_flex_r	arm_add_r	arm_rot_r	elbow_flex_r	pro_sup_r	arm_flex_l	arm_add_l	arm_rot_l	elbow_flex_l	pro_sup_l
      4.95000000	    -40.88293319	     -1.47322133	     -0.09054472	      0.67540413	      0.55433981	      0.13776775	    106.00373445	    -26.19264974	     -4.52193517	    101.14593848	      1.76532965	     39.90426068	     10.60390875	     -7.49999987	    111.04075589	    -21.46836797	      5.13911531	     97.66530131	      1.70458107	     38.77013231	     13.18675404	     -7.49999987	    -23.70032600	      3.86154703	     16.29676340	     97.51632624	    -15.43613190	     79.12141177	    118.11568817	     69.12018199	     82.30661568	     10.12251189	     61.00712984	    111.73875180	    106.14850906
      4.96666670	    -41.03436298	     -1.56731434	     -0.13708816	      0.67492831	      0.55021070	      0.13797176	    106.76142758	    -26.31025857	     -4.63049595	    101.94867799	      1.77934010	     39.90760384	     10.61868881	     -7.49999987	    112.03106678	    -21.79517715	      5.42058092	     98.38894014	      1.71721095	     38.73121408	     13.34427482	     -7.49999987	    -23.56734416	      3.75587548	     16.39910997	     97.76589827	    -15.34020585	     78.93581433	    118.56006086	     68.63350327	     82.79364440	     10.48855732	     60.68802368	    112.06450939	    105.52026214
      4.98333330	    -41.13670165	     -1.64480760	     -0.16225338	      0.67492190	      0.55055041	      0.13709422	    107.22359932	    -26.38862233	     -4.77457172	    102.40238613	      1.78725880	     39.84462914	     10.46244553	     -7.49999987	    112.69485017	    -21.99200307	      5.60992110	     98.81344515	      1.72461996	     38.77834201	     13.41908341	     -7.49999987	    -23.54066552	      3.70536462	     16.48485517	     97.55215557	    -15.46746848	     79.41614426	    118.93621570	     67.73201649	     82.10737614	     10.28559203	     61.43416616	    112.33397240	    104.14572028
      5.00000000	    -41.10821286	     -1.77264216	     -0.16112675	      0.66929262	      0.55167517	      0.13405501	    107.43080439	    -26.49221233	     -4.99580570	    102.54509914	      1.78974961	     39.39289900	      9.97669271	     -7.49999987	    113.11893927	    -22.02477439	      5.75351682	     99.00619599	      1.72798410	     38.43784632	     13.04444719	     -7.49999987	    -23.69850121	      3.88452634	     16.94142794	     99.11382555	    -16.19610915	     80.30551430	    120.07188268	     67.64618363	     83.72362060	     11.38416294	     61.42919651	    111.39834259	    104.48721928
      5.01666670	    -41.18911990	     -1.80915747	     -0.03787499	      0.67013924	      0.55744432	      0.14012564	    107.46094468	    -26.58022768	     -5.19566383	    102.36448479	      1.78659730	     39.23704561	     10.04067655	     -7.49999987	    113.18992686	    -22.00484641	      5.59937301	     98.75974750	      1.72368276	     38.40499215	     13.06439952	     -7.49999987	    -23.58253372	      3.71385711	     17.44288993	     99.25191004	    -16.10912899	     80.10126276	    119.90938244	     67.60612128	     84.00994502	     11.23114990	     61.19897309	    111.42828549	    104.45862484
      5.03333330	    -41.09321896	     -2.05652611	     -0.24925698	      0.68851118	      0.55884078	      0.14007261	    106.77732869	    -26.31379161	     -5.71230585	    102.05247947	      1.78115178	     39.22989479	     10.02408831	     -7.49999987	    112.88849710	    -22.22252726	      5.91853607	     98.53595201	      1.71977679	     38.73947051	     13.41510739	     -7.49999987	    -23.02180996	      3.98072611	     16.97932523	     96.65177758	    -14.08050360	     79.05011926	    120.44149609	     67.81576194	     80.82372430	     10.43923703	     60.63495159	    113.64581980	    106.05519383
      5.05000000	    -40.98668848	     -2.06978125	     -0.35818754	      0.68094606	      0.56541122	      0.13505664	    106.05175610	    -26.10102753	     -5.98649354	    101.39210251	      1.76962602	     39.10280108	      9.88038661	     -7.49999987	    112.15150727	    -22.38629408	      5.70590009	     97.92616329	      1.70913397	     38.93600338	     13.73476117	     -7.49999987	    -22.56443618	      4.01267245	     17.11665576	     96.19323761	    -13.86491420	     79.27297298	    122.41312076	     67.92270418	     79.89925193	     10.93819754	     60.88057693	    114.43037553	    106.31397065
      5.06666670	    -41.00726839	     -2.09189733	     -0.52576815	      0.68529162	      0.57873317	      0.13967605	    104.89673885	    -25.70483309	     -6.52687854	    100.13254588	      1.74764261	     38.88090698	      9.70222338	     -7.49999987	    111.07903163	    -22.59262655	      5.37201757	     96.77733400	      1.68908312	     39.04390662	     14.07251128	     -7.49999987	    -21.99883222	      3.73798438	     17.35340081	     94.85256039	    -14.84115388	     78.55729229	    122.46609167	     68.00760652	     80.50682906	     11.36908218	     61.54784255	    113.21945047	    106.94381150
      5.08333330	    -41.27028552	     -2.16335057	     -0.60338535	      0.66857624	      0.59062822	      0.14166203	    103.88227692	    -25.29372285	     -7.23946673	     98.40386795	      1.71747149	     38.14604276	      9.18838508	     -7.49999987	    110.22722326	    -22.77193423	      4.78180099	     95.17370289	      1.66109448	     38.44333689	     13.96690233	     -7.49999987	    -21.94211055	      3.69739596	     17.51688534	     96.91717610	    -15.53235345	     76.93153876	    121.54491378	     67.95310768	     83.09988258	     11.20736860	     60.92010338	    112.65806891	    106.56607512
      5.10000000	    -41.68498122	     -2.18825597	     -0.64694171	      0.66381971	      0.59752247	      0.13969896	    103.04866673	    -25.00059093	     -8.07901666	     96.52300069	      1.68464417	     37.29891157	      8.90566937	     -7.49999987	    109.46005396	    -22.86583493	      4.04791962	     93.38160879	      1.62981653	     37.55022944	     13.76071309	     -7.49999987	    -21.20090758	      3.56453875	     17.41017973	     97.51679356	    -14.64201884	     77.23030034	    122.86290214	     67.97384896	     84.50348610	     11.20886318	     61.35151104	    113.48528518	    106.50684453
      5.11666670	    -41.83431080	     -2.18177681	     -0.76007023	      0.66984718	      0.61229441	      0.13684777	    101.75971351	    -24.64412575	     -8.93550858	     94.41163168	      1.64779382	     36.32868173	      8.40895481	     -7.49999987	    108.15312901	    -22.89956690	      3.30460922	     91.37895856	      1.59486369	     36.72784853	     13.50373304	     -7.49999987	    -20.76578522	      3.63182821	     17.41034428	     98.26730005	    -14.76562467	     79.10840363	    123.61186917	     67.44662381	     85.30619372	     11.10581909	     62.15325961	    113.35919731	    102.92746823
      5.13333330	    -42.22676689	     -2.00665499	     -0.75643855	      0.64899582	      0.62330736	      0.12421804	    101.11944493	    -24.51999467	     -9.54770868	     92.18068458	      1.60885645	     34.74055349	      7.73499353	     -7.49999987	    107.17216866	    -22.64729208	      2.25784093	     89.25595028	      1.55781021	     35.41772026	     12.99547926	     -7.49999987	    -20.62560348	      3.50388280	     17.39727435	    101.00188020	    -16.60369990	     78.83715073	    126.06112409	     66.70246576	     88.23655517	     13.56565999	     61.56172451	    111.64952315	    105.46290467
      5.15000000	    -42.40541517	     -2.01023751	     -0.84115001	      0.66705361	      0.63921012	      0.13592317	     99.54176349	    -24.11005126	    -10.50496413	     89.52696175	      1.56254025	     33.48683963	      7.33962624	     -7.49999987	    105.51594321	    -22.37664686	      1.58354793	     86.64939752	      1.51231728	     34.66193548	     12.69081854	     -7.49999987	    -19.81941130	      3.73942634	     17.07018321	    100.08746750	    -14.93538373	     78.62719470	    124.31285525	     67.40753330	     86.64225269	     11.75615601	     61.00880962	    113.36575936	    105.91357178
      5.16666670	    -42.72182848	     -1.97279282	     -0.88537532	      0.65434877	      0.65461087	      0.13535036	     98.09815729	    -23.67182088	    -11.34470799	     86.63634587	      1.51208949	     32.04251117	      7.20500366	     -7.49999987	    103.87956279	    -22.14740518	      0.73433279	     83.73789695	      1.46150201	     33.61927776	     12.72757926	     -7.49999987	    -19.21344412	      3.67556010	     16.55952004	    100.29067187	    -13.85112791	     78.04746942	    124.03788360	     66.92639545	     87.61261070	     11.85664727	     61.52273165	    113.15666086	    102.73008010
      5.18333330	    -42.80681231	     -1.93004570	     -1.10898463	      0.66498207	      0.67099071	      0.13569114	     95.98435642	    -22.88264170	    -12.25930683	     83.29808829	      1.45382590	     30.30975029	      6.08407233	     -7.49999987	    101.53719477	    -22.02627385	     -0.02980984	     80.43109369	      1.40378741	     32.40521531	     12.50026284	     -7.49999987	    -18.53874248	      3.44779736	     15.51908867	     97.83036379	    -13.52513284	     78.32717019	    124.31849861	     66.95249958	     87.73186171	     11.00138071	     63.06258540	    113.74020570	    102.58015687
      5.20000000	    -42.66938672	     -1.79531147	     -1.25538247	      0.66398237	      0.68314607	      0.13597969	     93.79039323	    -22.14547444	    -12.88434785	     80.08355565	      1.39772172	     28.92159761	      5.61384604	     -7.49999987	     98.92917588	    -21.91621994	     -0.95717020	     77.19758898	      1.34735210	     31.24113102	     12.57578880	     -7.49999987	    -17.89574289	      3.12320148	     14.69726458	     96.69579290	    -12.29746304	     77.99613253	    124.92764644	     67.09505520	     88.58090862	     10.97768293	     63.84401971	    114.63890915	    102.85446983
